<?xml version="1.0" encoding="UTF-8"?>
<svg xmlns="http://www.w3.org/2000/svg" xmlns:xlink="http://www.w3.org/1999/xlink" width="400px" height="288px" viewBox="0 0 400 288" version="1.1">
<defs>
<filter id="alpha" filterUnits="objectBoundingBox" x="0%" y="0%" width="100%" height="100%">
  <feColorMatrix type="matrix" in="SourceGraphic" values="0 0 0 0 1 0 0 0 0 1 0 0 0 0 1 0 0 0 1 0"/>
</filter>
<mask id="mask0">
  <g filter="url(#alpha)">
<rect x="0" y="0" width="400" height="288" style="fill:rgb(0%,0%,0%);fill-opacity:0.2;stroke:none;"/>
  </g>
</mask>
<clipPath id="clip1">
  <rect x="0" y="0" width="400" height="288"/>
</clipPath>
<g id="surface5" clip-path="url(#clip1)">
<path style=" stroke:none;fill-rule:nonzero;fill:rgb(7.058824%,40%,94.509804%);fill-opacity:1;" d="M 159.21875 134.292969 C 159.21875 151.796875 145.046875 165.984375 127.566406 165.984375 C 110.085938 165.984375 95.914062 151.796875 95.914062 134.292969 C 95.914062 116.792969 110.085938 102.601562 127.566406 102.601562 C 145.046875 102.601562 159.21875 116.792969 159.21875 134.292969 Z M 159.21875 134.292969 "/>
</g>
<mask id="mask1">
  <g filter="url(#alpha)">
<rect x="0" y="0" width="400" height="288" style="fill:rgb(0%,0%,0%);fill-opacity:0.2;stroke:none;"/>
  </g>
</mask>
<clipPath id="clip2">
  <rect x="0" y="0" width="400" height="288"/>
</clipPath>
<g id="surface8" clip-path="url(#clip2)">
<path style=" stroke:none;fill-rule:nonzero;fill:rgb(7.058824%,40%,94.509804%);fill-opacity:1;" d="M 149.855469 134.292969 C 149.855469 146.621094 139.878906 156.613281 127.566406 156.613281 C 115.257812 156.613281 105.277344 146.621094 105.277344 134.292969 C 105.277344 121.96875 115.257812 111.976562 127.566406 111.976562 C 139.878906 111.976562 149.855469 121.96875 149.855469 134.292969 Z M 149.855469 134.292969 "/>
</g>
<mask id="mask2">
  <g filter="url(#alpha)">
<rect x="0" y="0" width="400" height="288" style="fill:rgb(0%,0%,0%);fill-opacity:0.101961;stroke:none;"/>
  </g>
</mask>
<clipPath id="clip3">
  <rect x="0" y="0" width="400" height="288"/>
</clipPath>
<g id="surface11" clip-path="url(#clip3)">
<path style=" stroke:none;fill-rule:nonzero;fill:rgb(0%,0%,0%);fill-opacity:1;" d="M 258.722656 46.035156 C 258.722656 46.035156 260.644531 59.480469 252.417969 62.5 C 244.195312 65.519531 247.210938 69.636719 247.210938 69.636719 L 259.546875 75.671875 L 272.703125 71.558594 L 277.089844 64.96875 C 277.089844 64.96875 269.960938 63.324219 271.878906 58.382812 C 273.800781 53.445312 274.347656 51.796875 274.347656 51.796875 Z M 258.722656 46.035156 "/>
</g>
<mask id="mask3">
  <g filter="url(#alpha)">
<rect x="0" y="0" width="400" height="288" style="fill:rgb(0%,0%,0%);fill-opacity:0.101961;stroke:none;"/>
  </g>
</mask>
<clipPath id="clip4">
  <rect x="0" y="0" width="400" height="288"/>
</clipPath>
<g id="surface14" clip-path="url(#clip4)">
<path style=" stroke:none;fill-rule:nonzero;fill:rgb(0%,0%,0%);fill-opacity:1;" d="M 293.261719 84.457031 C 293.261719 84.457031 291.34375 109.707031 291.890625 110.804688 C 292.4375 111.902344 291.890625 150.050781 291.890625 150.050781 C 291.890625 150.050781 295.726562 170.632812 290.792969 171.730469 C 285.859375 172.828125 286.957031 148.675781 286.957031 148.675781 L 282.023438 116.839844 L 282.570312 85.28125 Z M 293.261719 84.457031 "/>
</g>
</defs>
<g id="surface1">
<path style=" stroke:none;fill-rule:nonzero;fill:rgb(24.705882%,23.921569%,33.72549%);fill-opacity:1;" d="M 399.957031 288.113281 C 379.347656 285.089844 359.527344 282.484375 340.5 280.296875 L 348.023438 268.105469 C 345.488281 267.355469 334.339844 274.304688 334.339844 274.304688 L 344.21875 238.855469 C 331.460938 240.085938 324.96875 276.296875 324.96875 276.296875 L 310.714844 263.980469 L 317.613281 277.785156 C 259.367188 271.765625 209.066406 269.402344 166.757812 269.128906 L 173.199219 258.695312 C 170.660156 257.945312 159.515625 264.894531 159.515625 264.894531 L 169.390625 229.445312 C 156.632812 230.675781 150.140625 266.886719 150.140625 266.886719 L 135.886719 254.570312 L 143.195312 269.195312 C 107.726562 269.625 78.800781 271.519531 56.472656 273.730469 C 62.988281 257.457031 85.117188 242.054688 85.117188 242.054688 C 68.21875 246.1875 59.355469 253.207031 54.722656 259.765625 C 54.367188 239.632812 56.75 202.324219 74.445312 161.085938 C 74.445312 161.085938 39.511719 224.632812 43.964844 267.417969 L 44.496094 275.011719 C 14.886719 278.429688 0 282.058594 0 282.058594 Z M 399.957031 288.113281 "/>
<path style=" stroke:none;fill-rule:nonzero;fill:rgb(24.705882%,23.921569%,33.72549%);fill-opacity:1;" d="M 212.671875 11.539062 L 212.671875 268.324219 C 212.664062 274.691406 207.507812 279.851562 201.144531 279.855469 L 97.03125 279.855469 C 93.972656 279.859375 91.039062 278.648438 88.878906 276.484375 C 86.714844 274.320312 85.503906 271.382812 85.507812 268.324219 L 85.507812 11.539062 C 85.503906 5.167969 90.664062 0 97.03125 0 L 112.613281 0 L 112.613281 2 C 112.609375 7.246094 116.859375 11.503906 122.097656 11.503906 L 175.054688 11.503906 C 177.078125 11.507812 179.050781 10.859375 180.679688 9.648438 C 181.007812 9.410156 181.320312 9.148438 181.613281 8.867188 C 183.484375 7.074219 184.542969 4.59375 184.539062 2 L 184.539062 0 L 201.144531 0 C 207.511719 0 212.671875 5.164062 212.671875 11.539062 Z M 212.671875 11.539062 "/>
<path style=" stroke:none;fill-rule:nonzero;fill:rgb(94.901961%,94.901961%,94.901961%);fill-opacity:1;" d="M 117.28125 42.785156 C 117.28125 44.316406 116.039062 45.558594 114.511719 45.558594 C 112.980469 45.558594 111.742188 44.316406 111.742188 42.785156 C 111.742188 41.253906 112.980469 40.011719 114.511719 40.011719 C 116.039062 40.011719 117.28125 41.253906 117.28125 42.785156 Z M 117.28125 42.785156 "/>
<path style=" stroke:none;fill-rule:nonzero;fill:rgb(7.058824%,40%,94.509804%);fill-opacity:1;" d="M 181.613281 8.867188 C 181.320312 9.148438 181.007812 9.410156 180.679688 9.648438 C 187.535156 21.734375 199.140625 30.382812 212.671875 33.496094 L 212.671875 32.257812 C 199.507812 29.148438 188.246094 20.667969 181.613281 8.867188 Z M 181.613281 8.867188 "/>
<path style=" stroke:none;fill-rule:nonzero;fill:rgb(7.058824%,40%,94.509804%);fill-opacity:1;" d="M 157.949219 11.503906 L 156.652344 11.503906 C 166.027344 35.355469 187.363281 52.414062 212.671875 56.289062 L 212.671875 55.0625 C 188.03125 51.230469 167.234375 34.675781 157.949219 11.503906 Z M 157.949219 11.503906 "/>
<path style=" stroke:none;fill-rule:nonzero;fill:rgb(7.058824%,40%,94.509804%);fill-opacity:1;" d="M 134.042969 11.503906 L 132.792969 11.503906 C 143.25 47.847656 174.804688 74.898438 212.671875 79.292969 L 212.671875 78.085938 C 175.460938 73.710938 144.449219 47.171875 134.042969 11.503906 Z M 134.042969 11.503906 "/>
<path style=" stroke:none;fill-rule:nonzero;fill:rgb(94.901961%,94.901961%,94.901961%);fill-opacity:1;" d="M 105.410156 63.3125 L 104.691406 63.3125 L 104.691406 62.589844 L 104.550781 62.589844 L 104.550781 63.3125 L 103.828125 63.3125 L 103.828125 63.453125 L 104.550781 63.453125 L 104.550781 64.175781 L 104.691406 64.175781 L 104.691406 63.453125 L 105.410156 63.453125 Z M 105.410156 63.3125 "/>
<path style=" stroke:none;fill-rule:nonzero;fill:rgb(94.901961%,94.901961%,94.901961%);fill-opacity:1;" d="M 154.074219 27.265625 L 153.355469 27.265625 L 153.355469 26.542969 L 153.214844 26.542969 L 153.214844 27.265625 L 152.492188 27.265625 L 152.492188 27.40625 L 153.214844 27.40625 L 153.214844 28.125 L 153.355469 28.125 L 153.355469 27.40625 L 154.074219 27.40625 Z M 154.074219 27.265625 "/>
<path style=" stroke:none;fill-rule:nonzero;fill:rgb(94.901961%,94.901961%,94.901961%);fill-opacity:1;" d="M 112.53125 91.835938 L 111.8125 91.835938 L 111.8125 91.113281 L 111.671875 91.113281 L 111.671875 91.835938 L 110.949219 91.835938 L 110.949219 91.976562 L 111.671875 91.976562 L 111.671875 92.699219 L 111.8125 92.699219 L 111.8125 91.976562 L 112.53125 91.976562 Z M 112.53125 91.835938 "/>
<path style=" stroke:none;fill-rule:nonzero;fill:rgb(94.901961%,94.901961%,94.901961%);fill-opacity:1;" d="M 145.765625 70.839844 L 145.046875 70.839844 L 145.046875 70.117188 L 144.90625 70.117188 L 144.90625 70.839844 L 144.183594 70.839844 L 144.183594 70.980469 L 144.90625 70.980469 L 144.90625 71.703125 L 145.046875 71.703125 L 145.046875 70.980469 L 145.765625 70.980469 Z M 145.765625 70.839844 "/>
<path style=" stroke:none;fill-rule:nonzero;fill:rgb(94.901961%,94.901961%,94.901961%);fill-opacity:1;" d="M 193.246094 83.914062 L 192.523438 83.914062 L 192.523438 83.191406 L 192.382812 83.191406 L 192.382812 83.914062 L 191.664062 83.914062 L 191.664062 84.054688 L 192.382812 84.054688 L 192.382812 84.777344 L 192.523438 84.777344 L 192.523438 84.054688 L 193.246094 84.054688 Z M 193.246094 83.914062 "/>
<path style=" stroke:none;fill-rule:nonzero;fill:rgb(100%,39.607843%,51.764706%);fill-opacity:1;" d="M 186.519531 49.519531 C 186.519531 50.394531 185.808594 51.101562 184.9375 51.101562 C 184.0625 51.101562 183.355469 50.394531 183.355469 49.519531 C 183.355469 48.644531 184.0625 47.933594 184.9375 47.933594 C 185.808594 47.933594 186.519531 48.644531 186.519531 49.519531 Z M 186.519531 49.519531 "/>
<path style=" stroke:none;fill-rule:nonzero;fill:rgb(90.196078%,90.196078%,90.196078%);fill-opacity:1;" d="M 128.238281 86.675781 L 127.34375 86.816406 C 127.621094 88.613281 127.84375 90.453125 128.007812 92.269531 L 128.914062 92.191406 C 128.75 90.351562 128.523438 88.496094 128.238281 86.675781 Z M 128.238281 86.675781 "/>
<path style=" stroke:none;fill-rule:nonzero;fill:rgb(90.196078%,90.196078%,90.196078%);fill-opacity:1;" d="M 125.78125 75.847656 L 124.914062 76.113281 C 125.4375 77.855469 125.910156 79.640625 126.308594 81.421875 L 127.199219 81.21875 C 126.792969 79.417969 126.3125 77.613281 125.78125 75.847656 Z M 125.78125 75.847656 "/>
<path style=" stroke:none;fill-rule:nonzero;fill:rgb(90.196078%,90.196078%,90.196078%);fill-opacity:1;" d="M 121.863281 65.460938 L 121.035156 65.839844 C 121.792969 67.5 122.507812 69.203125 123.152344 70.90625 L 124.003906 70.585938 C 123.351562 68.863281 122.632812 67.136719 121.863281 65.460938 Z M 121.863281 65.460938 "/>
<path style=" stroke:none;fill-rule:nonzero;fill:rgb(90.196078%,90.196078%,90.196078%);fill-opacity:1;" d="M 116.558594 55.722656 L 115.792969 56.210938 C 116.769531 57.746094 117.707031 59.339844 118.578125 60.9375 L 119.378906 60.5 C 118.5 58.882812 117.550781 57.273438 116.558594 55.722656 Z M 116.558594 55.722656 "/>
<path style=" stroke:none;fill-rule:nonzero;fill:rgb(90.196078%,90.196078%,90.196078%);fill-opacity:1;" d="M 109.96875 46.796875 L 109.277344 47.386719 C 110.457031 48.773438 111.601562 50.222656 112.6875 51.691406 L 113.414062 51.148438 C 112.324219 49.664062 111.164062 48.199219 109.96875 46.796875 Z M 109.96875 46.796875 "/>
<path style=" stroke:none;fill-rule:nonzero;fill:rgb(90.196078%,90.196078%,90.196078%);fill-opacity:1;" d="M 102.222656 38.851562 L 101.617188 39.527344 C 102.976562 40.742188 104.3125 42.023438 105.582031 43.328125 L 106.234375 42.6875 C 104.949219 41.371094 103.597656 40.078125 102.222656 38.851562 Z M 102.222656 38.851562 "/>
<path style=" stroke:none;fill-rule:nonzero;fill:rgb(90.196078%,90.196078%,90.196078%);fill-opacity:1;" d="M 93.46875 32.027344 L 92.960938 32.78125 C 94.472656 33.800781 95.96875 34.886719 97.402344 36.007812 L 97.964844 35.289062 C 96.507812 34.15625 94.996094 33.058594 93.46875 32.027344 Z M 93.46875 32.027344 "/>
<path style=" stroke:none;fill-rule:nonzero;fill:rgb(90.196078%,90.196078%,90.196078%);fill-opacity:1;" d="M 85.507812 27.289062 L 85.507812 28.320312 C 86.453125 28.816406 87.390625 29.335938 88.308594 29.867188 L 88.761719 29.078125 C 87.695312 28.460938 86.609375 27.863281 85.507812 27.289062 Z M 85.507812 27.289062 "/>
<path style=" stroke:none;fill-rule:nonzero;fill:rgb(90.196078%,90.196078%,90.196078%);fill-opacity:1;" d="M 128.035156 172.246094 C 128.183594 171.359375 128.316406 170.457031 128.4375 169.558594 L 129.335938 169.679688 C 129.21875 170.585938 129.082031 171.5 128.933594 172.394531 Z M 128.035156 172.246094 "/>
<path style=" stroke:none;fill-rule:nonzero;fill:rgb(90.196078%,90.196078%,90.196078%);fill-opacity:1;" d="M 125.5 182.933594 L 126.367188 183.207031 C 126.914062 181.445312 127.40625 179.640625 127.835938 177.84375 L 126.949219 177.636719 C 126.523438 179.414062 126.039062 181.191406 125.5 182.933594 Z M 125.5 182.933594 "/>
<path style=" stroke:none;fill-rule:nonzero;fill:rgb(90.196078%,90.196078%,90.196078%);fill-opacity:1;" d="M 121.527344 193.167969 L 122.351562 193.554688 C 123.136719 191.886719 123.871094 190.171875 124.535156 188.449219 L 123.6875 188.121094 C 123.03125 189.820312 122.304688 191.519531 121.527344 193.167969 Z M 121.527344 193.167969 "/>
<path style=" stroke:none;fill-rule:nonzero;fill:rgb(90.196078%,90.196078%,90.196078%);fill-opacity:1;" d="M 116.179688 202.769531 L 116.941406 203.261719 C 117.949219 201.71875 118.914062 200.117188 119.8125 198.507812 L 119.019531 198.058594 C 118.132812 199.652344 117.175781 201.238281 116.179688 202.769531 Z M 116.179688 202.769531 "/>
<path style=" stroke:none;fill-rule:nonzero;fill:rgb(90.196078%,90.196078%,90.196078%);fill-opacity:1;" d="M 109.566406 211.539062 L 110.253906 212.136719 C 111.464844 210.738281 112.640625 209.285156 113.75 207.8125 L 113.023438 207.269531 C 111.925781 208.722656 110.765625 210.15625 109.566406 211.539062 Z M 109.566406 211.539062 "/>
<path style=" stroke:none;fill-rule:nonzero;fill:rgb(90.196078%,90.196078%,90.196078%);fill-opacity:1;" d="M 101.820312 219.320312 L 102.421875 220.003906 C 103.8125 218.789062 105.171875 217.507812 106.472656 216.203125 L 105.828125 215.558594 C 104.542969 216.847656 103.195312 218.113281 101.820312 219.320312 Z M 101.820312 219.320312 "/>
<path style=" stroke:none;fill-rule:nonzero;fill:rgb(90.196078%,90.196078%,90.196078%);fill-opacity:1;" d="M 93.097656 225.972656 L 93.597656 226.734375 C 95.136719 225.71875 96.660156 224.636719 98.125 223.519531 L 97.574219 222.792969 C 96.125 223.898438 94.617188 224.96875 93.097656 225.972656 Z M 93.097656 225.972656 "/>
<path style=" stroke:none;fill-rule:nonzero;fill:rgb(90.196078%,90.196078%,90.196078%);fill-opacity:1;" d="M 88.863281 229.628906 C 87.765625 230.25 86.640625 230.851562 85.507812 231.421875 L 85.507812 230.398438 C 86.488281 229.902344 87.460938 229.375 88.414062 228.839844 Z M 88.863281 229.628906 "/>
<path style=" stroke:none;fill-rule:nonzero;fill:rgb(90.196078%,90.196078%,90.196078%);fill-opacity:1;" d="M 128.300781 97.890625 L 129.210938 97.875 C 129.226562 98.792969 129.230469 99.71875 129.214844 100.621094 L 128.304688 100.609375 C 128.320312 99.714844 128.316406 98.800781 128.300781 97.890625 Z M 128.300781 97.890625 "/>
<path style=" stroke:none;fill-rule:nonzero;fill:rgb(100%,100%,100%);fill-opacity:1;" d="M 89.503906 119.492188 L 182.5625 119.492188 C 196.984375 119.492188 208.675781 131.195312 208.675781 145.636719 L 208.675781 149.097656 L 115.613281 149.097656 C 101.191406 149.097656 89.503906 137.390625 89.503906 122.953125 Z M 89.503906 119.492188 "/>
<path style=" stroke:none;fill-rule:nonzero;fill:rgb(94.901961%,94.901961%,94.901961%);fill-opacity:1;" d="M 151.261719 279.492188 C 151.171875 279.34375 149.03125 275.761719 148.289062 268.332031 C 147.609375 261.511719 148.046875 250.019531 154 233.984375 C 165.277344 203.613281 151.398438 179.105469 151.257812 178.863281 L 151.941406 178.464844 C 151.980469 178.527344 155.558594 184.773438 157.675781 194.722656 C 160.46875 207.914062 159.453125 221.628906 154.742188 234.261719 C 143.480469 264.582031 151.851562 278.9375 151.9375 279.078125 Z M 151.261719 279.492188 "/>
<path style=" stroke:none;fill-rule:nonzero;fill:rgb(7.058824%,40%,94.509804%);fill-opacity:1;" d="M 151.996094 171.929688 C 151.996094 174.773438 149.691406 177.078125 146.851562 177.078125 C 144.011719 177.078125 141.710938 174.773438 141.710938 171.929688 C 141.710938 169.085938 144.011719 166.777344 146.851562 166.777344 C 149.691406 166.777344 151.996094 169.085938 151.996094 171.929688 Z M 151.996094 171.929688 "/>
<path style=" stroke:none;fill-rule:nonzero;fill:rgb(94.901961%,94.901961%,94.901961%);fill-opacity:1;" d="M 168.21875 190.945312 C 168.21875 193.789062 165.914062 196.09375 163.074219 196.09375 C 160.234375 196.09375 157.929688 193.789062 157.929688 190.945312 C 157.929688 188.097656 160.234375 185.792969 163.074219 185.792969 C 165.914062 185.792969 168.21875 188.097656 168.21875 190.945312 Z M 168.21875 190.945312 "/>
<path style=" stroke:none;fill-rule:nonzero;fill:rgb(7.058824%,40%,94.509804%);fill-opacity:1;" d="M 157.140625 203.621094 C 157.140625 206.464844 154.835938 208.769531 151.996094 208.769531 C 149.15625 208.769531 146.851562 206.464844 146.851562 203.621094 C 146.851562 200.777344 149.15625 198.46875 151.996094 198.46875 C 154.835938 198.46875 157.140625 200.777344 157.140625 203.621094 Z M 157.140625 203.621094 "/>
<path style=" stroke:none;fill-rule:nonzero;fill:rgb(7.058824%,40%,94.509804%);fill-opacity:1;" d="M 170.589844 214.316406 C 170.589844 217.160156 168.289062 219.464844 165.449219 219.464844 C 162.605469 219.464844 160.304688 217.160156 160.304688 214.316406 C 160.304688 211.472656 162.605469 209.167969 165.449219 209.167969 C 168.289062 209.167969 170.589844 211.472656 170.589844 214.316406 Z M 170.589844 214.316406 "/>
<path style=" stroke:none;fill-rule:nonzero;fill:rgb(94.901961%,94.901961%,94.901961%);fill-opacity:1;" d="M 153.183594 230.953125 C 153.183594 233.800781 150.878906 236.105469 148.039062 236.105469 C 145.199219 236.105469 142.894531 233.800781 142.894531 230.953125 C 142.894531 228.109375 145.199219 225.804688 148.039062 225.804688 C 150.878906 225.804688 153.183594 228.109375 153.183594 230.953125 Z M 153.183594 230.953125 "/>
<path style=" stroke:none;fill-rule:nonzero;fill:rgb(94.901961%,94.901961%,94.901961%);fill-opacity:1;" d="M 154.371094 279.679688 C 154.371094 279.679688 149.226562 267.003906 164.65625 257.496094 Z M 154.371094 279.679688 "/>
<path style=" stroke:none;fill-rule:nonzero;fill:rgb(94.901961%,94.901961%,94.901961%);fill-opacity:1;" d="M 148.042969 279.449219 C 148.042969 279.449219 145.703125 265.96875 127.585938 266.085938 Z M 148.042969 279.449219 "/>
<use xlink:href="#surface5" mask="url(#mask0)"/>
<use xlink:href="#surface8" mask="url(#mask1)"/>
<path style=" stroke:none;fill-rule:nonzero;fill:rgb(7.058824%,40%,94.509804%);fill-opacity:1;" d="M 142.277344 134.292969 C 142.277344 142.429688 135.691406 149.023438 127.566406 149.023438 C 119.441406 149.023438 112.855469 142.429688 112.855469 134.292969 C 112.855469 126.160156 119.441406 119.5625 127.566406 119.5625 C 135.691406 119.5625 142.277344 126.160156 142.277344 134.292969 Z M 142.277344 134.292969 "/>
<path style=" stroke:none;fill-rule:nonzero;fill:rgb(100%,100%,100%);fill-opacity:1;" d="M 130.242188 131.117188 C 130.242188 129.871094 129.382812 128.789062 128.171875 128.507812 C 126.960938 128.226562 125.714844 128.820312 125.164062 129.9375 C 124.617188 131.054688 124.914062 132.40625 125.878906 133.191406 L 124.890625 140.097656 L 130.242188 140.097656 L 129.257812 133.191406 C 129.882812 132.683594 130.242188 131.921875 130.242188 131.117188 Z M 130.242188 131.117188 "/>
<path style=" stroke:none;fill-rule:nonzero;fill:rgb(18.431373%,18.039216%,25.490196%);fill-opacity:1;" d="M 275.414062 21.113281 C 275.414062 21.113281 266.589844 13.195312 254.722656 28.121094 C 242.855469 43.050781 224.296875 50.359375 220.035156 56.148438 C 220.035156 56.148438 237.683594 48.839844 243.769531 45.792969 C 249.855469 42.746094 249.550781 43.355469 249.550781 43.355469 C 249.550781 43.355469 241.335938 49.144531 239.8125 54.929688 C 238.292969 60.71875 239.511719 65.59375 236.773438 71.382812 C 234.03125 77.171875 289.105469 75.34375 289.105469 75.34375 C 289.105469 75.34375 294.582031 65.898438 293.0625 56.148438 C 291.539062 46.402344 292.453125 22.332031 275.414062 21.113281 Z M 275.414062 21.113281 "/>
<path style=" stroke:none;fill-rule:nonzero;fill:rgb(100%,72.54902%,72.54902%);fill-opacity:1;" d="M 258.722656 46.035156 C 258.722656 46.035156 260.644531 59.480469 252.417969 62.5 C 244.195312 65.519531 247.210938 69.636719 247.210938 69.636719 L 259.546875 75.671875 L 272.703125 71.558594 L 277.089844 64.96875 C 277.089844 64.96875 269.960938 63.324219 271.878906 58.382812 C 273.800781 53.445312 274.347656 51.796875 274.347656 51.796875 Z M 258.722656 46.035156 "/>
<use xlink:href="#surface11" mask="url(#mask2)"/>
<path style=" stroke:none;fill-rule:nonzero;fill:rgb(100%,72.54902%,72.54902%);fill-opacity:1;" d="M 293.261719 84.457031 C 293.261719 84.457031 291.34375 109.707031 291.890625 110.804688 C 292.4375 111.902344 291.890625 150.050781 291.890625 150.050781 C 291.890625 150.050781 295.726562 170.632812 290.792969 171.730469 C 285.859375 172.828125 286.957031 148.675781 286.957031 148.675781 L 282.023438 116.839844 L 282.570312 85.28125 Z M 293.261719 84.457031 "/>
<use xlink:href="#surface14" mask="url(#mask3)"/>
<path style=" stroke:none;fill-rule:nonzero;fill:rgb(100%,72.54902%,72.54902%);fill-opacity:1;" d="M 239.8125 160.476562 C 239.8125 160.476562 230.765625 194.785156 231.039062 211.527344 C 231.3125 228.265625 234.878906 251.59375 234.878906 251.59375 C 234.878906 251.59375 235.425781 261.75 234.601562 262.847656 C 233.78125 263.945312 238.714844 268.609375 238.714844 268.609375 L 243.921875 265.59375 L 245.839844 263.394531 L 245.839844 261.476562 C 245.839844 261.476562 242.824219 252.144531 245.292969 244.734375 C 247.761719 237.324219 249.128906 218.660156 246.664062 212.898438 L 263.65625 162.398438 Z M 239.8125 160.476562 "/>
<path style=" stroke:none;fill-rule:nonzero;fill:rgb(18.431373%,18.039216%,25.490196%);fill-opacity:1;" d="M 239.261719 264.21875 C 239.261719 264.21875 235.972656 260.101562 233.78125 261.476562 C 231.585938 262.847656 228.023438 272.179688 228.023438 272.179688 C 228.023438 272.179688 215.691406 283.980469 224.460938 284.527344 C 233.234375 285.078125 237.070312 282.058594 238.167969 279.863281 C 239.261719 277.667969 249.40625 271.902344 249.40625 271.902344 C 249.40625 271.902344 248.308594 261.476562 246.664062 261.199219 C 245.019531 260.925781 242.550781 265.316406 242.550781 265.316406 Z M 239.261719 264.21875 "/>
<path style=" stroke:none;fill-rule:nonzero;fill:rgb(100%,72.54902%,72.54902%);fill-opacity:1;" d="M 269.6875 162.671875 L 269.6875 196.707031 C 269.71875 200.835938 269.996094 204.957031 270.511719 209.054688 C 271.332031 215.09375 265.851562 260.101562 265.851562 260.101562 L 266.398438 268.0625 L 273.25 267.511719 L 274.074219 260.652344 L 283.941406 230.460938 C 283.941406 230.460938 287.230469 212.074219 285.585938 205.214844 C 283.941406 198.351562 294.082031 154.441406 294.082031 154.441406 Z M 269.6875 162.671875 "/>
<path style=" stroke:none;fill-rule:nonzero;fill:rgb(18.431373%,18.039216%,25.490196%);fill-opacity:1;" d="M 264.207031 266.140625 L 266.234375 265.699219 C 266.234375 265.699219 267.769531 262.296875 269.6875 263.121094 C 271.039062 263.746094 272.316406 264.511719 273.503906 265.410156 L 274.347656 266.964844 C 274.347656 266.964844 276.265625 271.082031 278.734375 273.824219 C 281.199219 276.570312 283.941406 282.609375 279.828125 283.15625 C 275.71875 283.707031 270.234375 283.980469 268.589844 282.609375 C 266.945312 281.234375 268.042969 279.039062 266.398438 278.492188 C 264.753906 277.941406 263.382812 276.296875 263.65625 275.746094 C 263.933594 275.199219 264.207031 266.140625 264.207031 266.140625 Z M 264.207031 266.140625 "/>
<path style=" stroke:none;fill-rule:nonzero;fill:rgb(100%,72.54902%,72.54902%);fill-opacity:1;" d="M 281.871094 43.289062 C 281.871094 50.023438 276.414062 55.484375 269.6875 55.484375 C 262.960938 55.484375 257.507812 50.023438 257.507812 43.289062 C 257.507812 36.550781 262.960938 31.089844 269.6875 31.089844 C 276.414062 31.089844 281.871094 36.550781 281.871094 43.289062 Z M 281.871094 43.289062 "/>
<path style=" stroke:none;fill-rule:nonzero;fill:rgb(7.058824%,40%,94.509804%);fill-opacity:1;" d="M 246.664062 64.695312 L 250.285156 63.429688 C 250.285156 63.429688 248.855469 65.792969 256.53125 67.164062 C 264.207031 68.539062 272.152344 69.023438 275.71875 64.527344 C 275.71875 64.527344 277.089844 63.871094 279.007812 65.792969 C 280.925781 67.714844 282.023438 67.164062 282.023438 67.164062 L 280.652344 74.300781 L 277.910156 87.476562 L 274.347656 97.355469 L 264.207031 95.160156 L 253.242188 87.199219 L 249.128906 76.496094 L 249.128906 66.617188 Z M 246.664062 64.695312 "/>
<path style=" stroke:none;fill-rule:nonzero;fill:rgb(7.058824%,40%,94.509804%);fill-opacity:1;" d="M 280.105469 68.539062 L 282.84375 66.617188 C 282.84375 66.617188 292.164062 68.261719 292.710938 72.65625 L 285.585938 86.378906 C 287.039062 90.195312 286.941406 94.433594 285.3125 98.179688 C 282.570312 104.492188 282.84375 105.863281 282.84375 105.863281 L 280.925781 114.097656 L 246.113281 116.839844 C 246.113281 116.839844 244.746094 113.546875 244.195312 113 C 243.648438 112.449219 243.648438 110.527344 244.195312 110.527344 C 244.746094 110.527344 244.195312 109.707031 243.648438 108.882812 C 243.101562 108.058594 242.824219 107.785156 243.648438 106.6875 C 244.46875 105.589844 242.277344 95.707031 242.277344 95.707031 L 242.277344 85.003906 L 232.957031 72.65625 C 232.957031 72.65625 236.246094 67.714844 237.890625 67.164062 C 239.535156 66.617188 247.359375 64.453125 247.359375 64.453125 L 249.128906 67.0625 L 251.597656 86.925781 L 255.160156 99 L 270.164062 96.449219 L 275.992188 86.652344 L 279.828125 75.125 Z M 280.105469 68.539062 "/>
<path style=" stroke:none;fill-rule:nonzero;fill:rgb(7.058824%,40%,94.509804%);fill-opacity:1;" d="M 290.519531 71.007812 L 292.710938 72.65625 C 292.710938 72.65625 294.632812 88.023438 294.082031 89.121094 C 293.535156 90.21875 283.941406 91.316406 283.667969 90.769531 C 283.394531 90.21875 290.519531 71.007812 290.519531 71.007812 Z M 290.519531 71.007812 "/>
<path style=" stroke:none;fill-rule:nonzero;fill:rgb(18.431373%,18.039216%,25.490196%);fill-opacity:1;" d="M 245.292969 63.324219 L 248.035156 81.4375 C 248.035156 81.4375 245.566406 108.332031 246.113281 113.820312 L 246.664062 115.46875 C 246.664062 115.46875 245.566406 114.917969 245.292969 116.015625 C 245.019531 117.117188 245.292969 120.683594 245.292969 120.683594 C 245.292969 120.683594 243.648438 122.328125 243.101562 131.386719 C 242.550781 140.445312 235.972656 162.125 238.441406 162.949219 C 240.90625 163.773438 255.707031 167.886719 263.65625 167.066406 C 271.605469 166.242188 300.113281 156.636719 299.839844 154.164062 C 299.566406 151.695312 285.859375 116.839844 285.859375 116.839844 C 285.859375 116.839844 283.394531 112.722656 283.394531 112.175781 C 283.394531 111.625 286.683594 109.429688 285.859375 107.234375 C 285.039062 105.039062 280.652344 81.984375 280.652344 81.984375 L 283.667969 65.519531 L 279.554688 64.421875 L 276.539062 80.339844 C 276.539062 80.339844 264.753906 86.101562 252.417969 80.886719 L 249.679688 62.226562 Z M 245.292969 63.324219 "/>
<path style=" stroke:none;fill-rule:nonzero;fill:rgb(18.431373%,18.039216%,25.490196%);fill-opacity:1;" d="M 258.480469 34.535156 C 258.480469 34.535156 278.765625 48.53125 284.246094 42.21875 C 289.726562 35.90625 274.652344 30.417969 274.652344 30.417969 L 262.042969 29.046875 Z M 258.480469 34.535156 "/>
<path style=" stroke:none;fill-rule:nonzero;fill:rgb(7.058824%,40%,94.509804%);fill-opacity:1;" d="M 226.964844 183.433594 C 231.285156 186.652344 237.320312 186.152344 241.054688 182.269531 C 244.789062 178.382812 245.054688 172.324219 241.675781 168.128906 C 238.300781 163.929688 232.328125 162.902344 227.746094 165.726562 C 223.160156 168.554688 221.386719 174.355469 223.609375 179.265625 L 195.636719 202.585938 L 191.910156 198.160156 L 190.238281 199.28125 L 188.375 197.066406 L 189.90625 195.777344 L 188.042969 193.5625 L 185.664062 195.570312 L 186.808594 196.933594 L 184.257812 199.085938 L 183.113281 197.722656 L 179.371094 200.878906 L 181.089844 202.921875 L 182.449219 201.773438 L 184.3125 203.988281 L 182.613281 205.421875 L 186.050781 209.507812 L 181.96875 212.949219 L 186.125 217.886719 Z M 233.949219 167.789062 C 237.84375 168.121094 240.730469 171.550781 240.398438 175.449219 C 240.0625 179.347656 236.640625 182.238281 232.746094 181.90625 C 228.851562 181.570312 225.964844 178.140625 226.296875 174.242188 C 226.632812 170.34375 230.058594 167.457031 233.949219 167.789062 Z M 233.949219 167.789062 "/>
<path style=" stroke:none;fill-rule:nonzero;fill:rgb(100%,72.54902%,72.54902%);fill-opacity:1;" d="M 231.039062 87.75 C 231.039062 87.75 232.957031 113 232.410156 114.097656 C 231.863281 115.195312 232.410156 153.34375 232.410156 153.34375 C 232.410156 153.34375 228.574219 173.925781 233.507812 175.023438 C 238.441406 176.121094 237.34375 151.96875 237.34375 151.96875 L 242.277344 120.132812 L 241.730469 88.574219 Z M 231.039062 87.75 "/>
<path style=" stroke:none;fill-rule:nonzero;fill:rgb(7.058824%,40%,94.509804%);fill-opacity:1;" d="M 235.152344 71.832031 L 232.957031 72.65625 C 232.957031 72.65625 228.847656 89.945312 229.941406 89.945312 C 231.039062 89.945312 244.195312 91.589844 244.195312 91.042969 C 244.195312 90.492188 241.730469 77.046875 241.730469 77.046875 Z M 235.152344 71.832031 "/>
</g>
</svg>
